<?xml version="1.0" standalone="no"?>
<!DOCTYPE svg PUBLIC "-//W3C//DTD SVG 20010904//EN"
 "http://www.w3.org/TR/2001/REC-SVG-20010904/DTD/svg10.dtd">
<svg version="1.0" xmlns="http://www.w3.org/2000/svg"
 width="181.000000pt" height="181.000000pt" viewBox="0 0 181.000000 181.000000"
 preserveAspectRatio="xMidYMid meet">
<metadata>
Created by potrace 1.11, written by Peter Selinger 2001-2013
</metadata>
<g transform="translate(0.000000,181.000000) scale(0.100000,-0.100000)"
fill="#000000" stroke="none">
<path d="M1080 1385 l0 -325 80 0 80 0 -2 323 -3 322 -77 3 -78 3 0 -326z"/>
<path d="M750 1341 l0 -280 160 0 160 0 0 210 0 211 -80 -4 -79 -3 -3 70 -3
70 -77 3 -78 3 0 -280z"/>
<path d="M587 1374 c-4 -4 -7 -76 -7 -161 l0 -153 80 0 81 0 -3 158 -3 157
-70 3 c-39 1 -74 0 -78 -4z"/>
<path d="M55 921 l-50 -18 -3 -331 -2 -332 65 0 65 0 0 350 c0 274 -3 350 -12
349 -7 0 -35 -8 -63 -18z"/>
<path d="M309 703 c-172 -88 -182 -322 -18 -430 33 -22 56 -28 110 -31 38 -2
82 1 99 6 18 7 30 7 30 1 0 -5 29 -9 65 -9 l65 0 0 245 0 245 -64 0 c-37 0
-66 -5 -68 -11 -2 -7 -12 -7 -31 0 -52 20 -129 13 -188 -16z m178 -129 c46
-29 58 -113 23 -157 -47 -59 -143 -56 -181 7 -65 106 54 219 158 150z"/>
<path d="M670 723 c0 -5 36 -115 81 -246 l82 -238 55 3 56 3 36 114 35 114 37
-114 36 -114 57 0 57 0 69 199 c38 110 71 201 72 203 2 2 39 -76 82 -174 l79
-176 -21 -56 c-11 -31 -30 -80 -42 -108 l-21 -53 73 0 72 0 123 308 c67 169
122 315 122 325 0 14 -10 17 -64 17 l-64 0 -54 -135 -54 -135 -56 133 -56 132
-118 0 -117 0 -40 -120 -40 -120 -39 123 -39 122 -54 0 c-42 0 -55 -4 -59 -17
-3 -10 -19 -65 -37 -123 l-32 -105 -41 123 -40 122 -68 0 c-37 0 -68 -3 -68
-7z"/>
</g>
</svg>
